<svg height="300px" width="300px" fill="#000000" xmlns="http://www.w3.org/2000/svg" xmlns:xlink="http://www.w3.org/1999/xlink" version="1.1" x="0px" y="0px" viewBox="0 0 100 100" enable-background="new 0 0 100 100" xml:space="preserve"><path d="M81.3,48.9c-1.2-1.5-2.9-3.6-3.7-4.6c-0.8-1-1.5-2.3-1.6-2.9c-0.1-0.6,0.3-1.7,0.8-2.5c0.5-0.8,0-4.5-1-8.2  c-1.1-3.7-2.3-7.4-2.7-8.2c-0.4-0.8-0.8-2.2-0.7-3.1c0.1-0.9-3.9-3.9-8.8-6.7c-4.9-2.8-12.7-5-17.3-5s-12.4,2.7-17.4,6.1  c-5,3.3-9.7,10.2-10.6,15.3c-0.8,5.1-1.3,10.8-1,12.7c0.3,1.9,1.8,5.8,3.2,8.7c1.5,2.8,4.4,7,6.6,9.2c2.1,2.2,3.3,7,2.5,10.7  c-0.8,3.7-4.4,10.9-8.1,16c-1.5,2-2.7,4.1-3.6,5.9h34.9c0.5-1.7,1.3-3.5,2.3-5.4c2.6-4.8,5.8-9.5,7-10.5c1.3-0.9,3.9-1.2,5.8-0.7  c1.9,0.5,4.8,0.5,6.3,0c1.6-0.5,2.8-2.4,2.8-4.2c0-1.8,0.2-3.7,0.5-4.4c0.3-0.6,0.8-1.4,1.2-1.7c0.4-0.3,0.7-1,0.7-1.6  s-0.3-1.2-0.6-1.4s-0.2-0.7,0.2-1c0.4-0.4,0.8-1,0.8-1.5s-0.3-1.3-0.6-1.9c-0.3-0.6-0.6-1.4-0.7-1.9c-0.1-0.4,0.6-1.1,1.6-1.6  c0.9-0.4,2.1-1.3,2.6-2C83.2,52.2,82.6,50.5,81.3,48.9z"/></svg>